<?xml version="1.0" encoding="UTF-8" standalone="no"?>
<!-- Created with Inkscape (http://www.inkscape.org/) -->

<svg
   xmlns:dc="http://purl.org/dc/elements/1.1/"
   xmlns:cc="http://creativecommons.org/ns#"
   xmlns:rdf="http://www.w3.org/1999/02/22-rdf-syntax-ns#"
   xmlns:svg="http://www.w3.org/2000/svg"
   xmlns="http://www.w3.org/2000/svg"
   xmlns:sodipodi="http://sodipodi.sourceforge.net/DTD/sodipodi-0.dtd"
   xmlns:inkscape="http://www.inkscape.org/namespaces/inkscape"
   width="1280"
   height="720"
   id="svg3569"
   version="1.1"
   inkscape:version="0.48.4 r9939"
   sodipodi:docname="farseerPolygon.svg">
  <defs
     id="defs3571" />
  <sodipodi:namedview
     id="base"
     pagecolor="#ffffff"
     bordercolor="#666666"
     borderopacity="1.0"
     inkscape:pageopacity="0.0"
     inkscape:pageshadow="2"
     inkscape:zoom="0.5"
     inkscape:cx="-39"
     inkscape:cy="382"
     inkscape:current-layer="layer1"
     inkscape:document-units="px"
     showgrid="false"
     inkscape:window-width="1920"
     inkscape:window-height="1138"
     inkscape:window-x="1272"
     inkscape:window-y="-8"
     inkscape:window-maximized="1" />
  <metadata
     id="metadata3574">
    <rdf:RDF>
      <cc:Work
         rdf:about="">
        <dc:format>image/svg+xml</dc:format>
        <dc:type
           rdf:resource="http://purl.org/dc/dcmitype/StillImage" />
      </cc:Work>
    </rdf:RDF>
  </metadata>
  <g
     id="layer1"
     inkscape:label="Layer 1"
     inkscape:groupmode="layer"
     transform="translate(0,-48)">
    <g
       id="g3588"
       transform="translate(-206,-132)">
      <path
         inkscape:connector-curvature="0"
         id="path4235-1-5"
         d="m 21.984054,91.626539 c -32.63281,-3.93431 -50.34017,30.074891 -45.8438,58.489441 1.37892,13.71584 -30.31375,-2.85763 -21.9687,20.88556 -8.22784,24.02617 24.36287,6.6991 21.9687,21.66301 0.5382,33.83137 -1.08122,67.99666 0.8126,101.61824 17.0126496,8.76939 43.28714,3.93962 35.9374,-19.29815 0,-29.67145 0,-59.3429 0,-89.01435 10.59812,-1.84548 30.56454,6.38489 29.50158,-11.2286 5.90503,-20.7427 -13.51149,-19.83432 -27.38292,-18.67765 -6.2575004,-9.55114 -2.11197,-41.94004 18.97514,-34.34375 27.32971,11.38253 13.00769,-42.935291 -12,-30.093751 z m 85.499996,61.093751 c -22.324646,-0.3855 -68.390826,8.65963 -50.749996,40.125 20.97646,-6.74117 71.937126,-28.75887 72.281196,12.3125 1.80749,16.75485 -26.15565,2.92729 -36.489786,9.37956 -31.49035,-0.67776 -57.71403,31.55455 -43.19761,61.49544 15.2231,31.61541 64.345436,30.84999 85.406196,5.71875 -8.3429,19.81648 32.33801,23.29663 30.4688,5.38556 -0.77747,-33.66192 1.8007,-67.55814 -1.80952,-101.02728 -4.15032,-26.61706 -32.84392,-34.17984 -55.90928,-33.38953 z m 150.8438,0 c -19.1837,-6.85833 -38.70472,42.53723 -34.7188,9.53167 -7.24646,-14.54038 -39.6875,-8.28797 -31.5,12.2006 0,39.08924 0,78.17849 0,117.26773 11.86634,12.28272 45.12746,8.21534 36.9375,-15.06208 0,-22.12514 0,-44.25028 0,-66.37542 6.94251,-23.1417 30.75295,-21.06409 45.8437,-23.15625 1.2897,-14.31449 6.84413,-38.27187 -16.5624,-34.40625 z m 76.5624,0 c -29.90175,-3.56397 -62.10009,23.18429 -51.62441,54.66558 5.08501,33.68166 58.03587,23.15544 61.22496,53.92917 -11.99725,26.8084 -46.32488,0.63936 -62.31925,2.65525 -11.78357,37.39868 40.16656,40.21484 64.5937,33.25 33.31181,-5.04232 46.90686,-53.44751 19.02997,-73.3974 -16.27424,-9.0914 -74.68085,-26.20149 -34.65648,-44.78074 21.10214,2.05427 56.37894,20.0009 38.68911,-17.75936 -10.25925,-6.6074 -22.99247,-8.22948 -34.9376,-8.5625 z m 122.4376,0 c -35.1718,-2.45243 -64.95989,28.12855 -66.02081,62.54005 -4.23582,32.07423 5.98512,73.30348 42.05254,81.45783 25.53061,5.6362 55.94975,5.35485 78.03037,-9.18538 13.12612,-44.09156 -34.77235,-6.95082 -56.31806,-15.90867 -16.79412,2.94376 -37.49193,-32.4223 -20.20638,-35.87258 25.82802,-0.50814 51.82981,1.03451 77.54513,-0.80366 14.74581,-14.79787 4.03257,-43.48129 -4.43717,-59.52834 -11.01978,-16.54107 -31.57244,-23.11728 -50.64562,-22.69925 z m 141.15619,0 c -34.37207,-2.36326 -63.99478,26.88521 -65.75294,60.5992 -4.87568,32.4891 5.00403,75.01223 41.78692,83.39868 25.52802,5.62916 55.96952,5.36783 78.02899,-9.18538 13.159,-44.08643 -34.77067,-6.95608 -56.30257,-15.90867 -18.50119,3.51084 -41.12451,-40.25635 -15.16994,-35.87258 24.15474,-0.50436 48.48224,1.02941 72.52441,-0.80366 15.6967,-20.10462 3.4936,-56.84797 -16.44577,-71.6457 -11.2044,-7.99867 -25.1483,-10.66388 -38.6691,-10.58189 z m 148.37497,0 c -19.198,-6.87759 -38.7069,42.53719 -34.7188,9.53167 -7.2933,-14.54461 -39.6842,-8.28377 -31.5,12.2006 0,39.08924 0,78.17849 0,117.26773 11.8694,12.28284 45.1029,8.21406 36.9063,-15.06208 0,-22.12514 0,-44.25028 0,-66.37542 6.9398,-23.14235 30.7599,-21.06428 45.8437,-23.15625 1.4579,-14.13522 6.6243,-38.41957 -16.5312,-34.40625 z m -290.40616,26.0625 c 23.27341,-5.64099 40.76354,42.83137 10.07675,33.25 -12.78601,0 -25.57203,0 -38.35805,0 -0.14295,-16.0397 10.08896,-34.36747 28.2813,-33.25 z m 141.15619,0 c 23.3028,-5.67053 40.7642,42.83263 10.0769,33.25 -12.7757,0 -25.55128,0 -38.32689,0 -0.033,-16.18228 9.89318,-34.23354 28.24999,-33.25 z m -482.65619,57.40625 c 14.20973,-3.94371 16.00316,4.52887 14.0624,16.73565 -1.02367,18.13272 -32.206486,29.17684 -44.241856,13.8234 -12.15403,-21.47418 12.15526,-32.44958 30.179456,-30.55905 z"
         style="font-size:250px;font-style:normal;font-variant:normal;font-weight:normal;font-stretch:normal;text-align:start;line-height:125%;letter-spacing:-10px;word-spacing:0px;writing-mode:lr-tb;text-anchor:start;fill:none;stroke:#000000;font-family:Calibri;-inkscape-font-specification:Calibri" />
      <path
         inkscape:connector-curvature="0"
         id="path4235-1"
         d="m 249.78965,317.11429 c -15.5855,-2.50917 -8.44564,15.37749 -10.03125,24.332 0.29299,48.08898 -0.58291,96.32973 0.4375,144.32425 16.3745,9.70807 22.92836,-4.42268 19.71875,-17.99685 0,-20.14689 0,-40.29377 0,-60.44065 10.55273,-22.38114 49.95501,-31.52986 53.48519,0.41315 2.07251,25.91014 -0.25349,52.17244 1.32731,78.02435 16.36452,9.72777 22.84255,-4.47066 19.65625,-17.99685 -0.90888,-24.9315 2.42702,-50.33846 -3.20296,-74.80146 -8.37442,-28.57792 -48.91571,-31.25202 -66.92761,-10.42524 -8.1789,9.78807 -2.79429,-12.78047 -4.33818,-18.86314 -0.34338,-14.75797 0.68065,-29.71427 -0.5,-44.35081 -2.34446,-2.70293 -6.61219,-1.79198 -9.625,-2.21875 z m 312.40625,8.0625 c -36.33837,5.79959 14.24092,45.58971 12.14845,8.76701 0.18815,-6.80977 -6.49519,-9.20471 -12.14845,-8.76701 z m -387,43.59375 c -14.86107,-6.15687 -34.97106,21.20572 -39.0625,16.16485 7.30065,-14.25144 -18.37033,-21.89649 -17.71875,-6.5797 0.29031,50.32818 -0.5835,100.80482 0.4375,151.03982 13.56791,8.6622 23.66236,-1.9372 19.71875,-15.3047 0,-13.7734 0,-27.54684 0,-41.32027 17.49754,23.46087 57.2946,21.90287 71.49446,-4.15252 13.46568,-26.36431 13.61254,-61.71118 -3.62316,-86.32199 -7.54027,-9.29835 -19.4566,-13.82178 -31.2463,-13.52549 z m 323.125,0 c -22.95501,-2.69381 -46.93342,18.69952 -38.69682,42.40375 6.71664,27.05652 47.78436,18.9831 53.85312,44.6275 -3.14646,26.81604 -39.68933,17.61327 -54.87505,7.09375 -13.57739,22.62573 24.29721,29.43737 40.78732,26.01728 24.05873,-0.2498 42.63379,-27.80264 30.30296,-49.36789 -10.58595,-22.08945 -51.82213,-14.59877 -51.80134,-42.5683 6.846,-26.68366 40.15039,-0.63529 49.67981,-8.48739 4.47745,-17.17101 -17.73239,-18.85098 -29.25,-19.7187 z m 231.25001,0 c -22.9424,-2.71306 -46.9655,18.71709 -38.7017,42.40375 7.2825,23.37654 36.9104,21.34067 51.4514,36.815 11.2607,31.53467 -36.4617,29.55641 -52.0625,14.90625 -14.5316,19.7894 20.0388,29.26897 35.9086,26.44981 24.3814,1.45946 46.6374,-23.70389 36.0602,-47.32486 -9.6396,-22.47486 -41.5525,-17.24909 -52.7979,-37.36847 -3.837,-30.17307 35.2174,-17.11197 48.7666,-13.66278 7.0017,-18.66583 -15.7102,-21.56642 -28.6247,-22.2187 z m -86.31247,0.125 c -31.1544,-2.35036 -52.7334,28.37571 -51.1875,57.1875 -2.4851,26.58252 9.8108,60.30348 40.3491,62.85694 18.14587,2.50653 52.49687,-3.76157 45.43207,-28.66944 -14.0071,1.35047 -38.69027,23.8078 -54.87697,3.67081 -13.749,-18.73257 -13.2111,-46.93074 -2.248,-66.92081 13.7648,-20.68566 39.87527,-7.54129 55.12187,1.30115 11.8392,-20.52389 -17.5192,-29.65669 -32.59057,-29.42615 z m -286.65629,1.59375 c -17.6634,-1.80904 -4.57208,16.81037 -2.35914,25.67085 11.43755,29.73772 21.76112,59.99958 33.85914,89.4229 3.34241,6.57337 -5.36647,16.45657 -6.95703,24.38477 -7.39446,11.8096 -9.3684,28.7398 11.64453,20.6152 7.76392,-6.2679 8.04288,-18.4879 12.54091,-27.3221 15.18903,-43.03255 31.7236,-85.70102 45.99034,-128.99037 -11.32898,-11.5676 -24.66448,1.27313 -25.591,14.64379 -8.668,24.70868 -16.71374,50.28694 -25.784,74.44996 -10.90418,-30.18285 -21.22181,-60.60665 -32.53125,-90.625 -2.63895,-3.08193 -7.31008,-1.88159 -10.8125,-2.25 z m 205.46875,0 c -15.58166,-2.59125 -8.45018,15.28781 -10.0313,24.207 0.29337,30.33893 -0.58658,60.83024 0.4376,91.07425 16.37449,9.70807 22.92836,-4.42268 19.71875,-17.99685 -0.33422,-31.6733 0.66759,-63.55126 -0.5,-95.0969 -2.3442,-2.7 -6.61047,-1.80533 -9.62505,-2.1875 z m -390.90625,15.625 c 25.34955,0.50166 28.61407,31.8606 26.69351,51.34306 2.06833,24.74015 -27.49252,47.64423 -47.31428,26.35693 -12.46526,-6.84102 -13.04951,-19.1771 -11.97298,-31.60778 0,-8.20782 0,-16.41564 0,-24.62346 8.23402,-10.04958 18.50794,-21.4473 32.59375,-21.46875 z"
         style="font-size:250px;font-style:normal;font-variant:normal;font-weight:normal;font-stretch:normal;text-align:start;line-height:125%;letter-spacing:-10px;word-spacing:0px;writing-mode:lr-tb;text-anchor:start;fill:none;stroke:#000000;font-family:Calibri;-inkscape-font-specification:Calibri" />
      <path
         sodipodi:nodetypes="cccccccccccccc"
         inkscape:connector-curvature="0"
         id="rect3092-2-2-3"
         d="m -140.3381,-161.25663 c -3.4597,-5.99095 -12.0581,-8.29539 -18.0494,-4.83633 -65.048,31.67083 -124.9164,67.21665 -183.0861,105.704789 -5.9913,3.45908 -8.2948,12.05777 -4.8363,18.04944 30.58,62.30293 67.1689,124.84342 105.7048,183.086111 3.4597,5.99088 12.0581,8.29528 18.0494,4.83619 64.3107,-31.2489 123.447704,-66.363041 183.086104,-105.704701 5.991,-3.45968 8.2948,-12.05777 4.8363,-18.04944 -31.0423,-66.81003 -64.8486,-120.565509 -105.704804,-183.086059 z m -16.2792,24.65599 c 25.7429,51.6661 92.491704,160.200299 92.491704,160.200299 0,0 -72.196704,37.10586 -160.200304,92.491611 -57.6664,-111.2060506 -92.4917,-160.200231 -92.4917,-160.200231 0,0 117.4915,-62.276069 160.2003,-92.491679 z"
         style="font-size:medium;font-style:normal;font-variant:normal;font-weight:normal;font-stretch:normal;text-indent:0;text-align:start;text-decoration:none;line-height:normal;letter-spacing:normal;word-spacing:normal;text-transform:none;direction:ltr;block-progression:tb;writing-mode:lr-tb;text-anchor:start;baseline-shift:baseline;color:#000000;fill:none;stroke:#000000;stroke-width:11;marker:none;visibility:visible;display:inline;overflow:visible;enable-background:accumulate;font-family:Sans;-inkscape-font-specification:Sans" />
    </g>
  </g>
</svg>
